<svg xmlns="http://www.w3.org/2000/svg" viewBox="0 0 24 24" id="archlinux"><polygon points="11.39 1.002 11.39 1.002 11.391 1"></polygon><path fill="#1793D1" d="M9.321,18.304l0.004-0.121c0.061-2.437,1.328-4.312,2.83-4.185c1.502,0.127,2.669,2.208,2.61,4.643c-0.012,0.459-0.064,0.9-0.154,1.309c2.718,0.532,5.637,1.882,9.389,4.048c-0.739-1.362-1.4-2.59-2.031-3.759c-0.994-0.77-2.03-1.773-4.143-2.857c1.453,0.378,2.493,0.812,3.303,1.299C14.714,6.747,14.196,5.159,11.997,0c-1.069,2.618-1.712,4.33-2.901,6.872c0.73,0.774,1.625,1.673,3.078,2.69c-1.563-0.643-2.629-1.289-3.426-1.958C7.227,10.78,4.841,15.304,0,24c3.805-2.196,6.753-3.549,9.502-4.067C9.384,19.426,9.317,18.876,9.321,18.304L9.321,18.304z"></path><path fill="#1480B6" d="M8.749,7.604C7.227,10.78,4.841,15.304,0,24l0,0c3.805-2.196,6.753-3.549,9.502-4.067c-0.118-0.506-0.185-1.056-0.181-1.629l0.004-0.121c0.059-2.353,1.242-4.182,2.675-4.191V9.489C10.532,8.869,9.516,8.247,8.749,7.604L8.749,7.604z M11.997,0c-1.069,2.618-1.712,4.33-2.901,6.872c0.7,0.742,1.552,1.6,2.904,2.566V0.007C11.999,0.005,11.998,0.002,11.997,0L11.997,0z"></path></svg>